<svg width="178" height="42" fill="none" xmlns="http://www.w3.org/2000/svg"><path d="M6.69 9.593L.375 10.939l6.326 1.851a2.3 2.3 0 011.588 1.714l1.575 7.568 1.702-7.43a2.3 2.3 0 011.714-1.702l6.326-1.438-6.51-1.829a2.3 2.3 0 01-1.53-1.76L10.117.623 8.473 7.868A2.3 2.3 0 016.69 9.593zm8.956 20.514L9.99 31.312l5.666 1.659a2.06 2.06 0 011.421 1.535l1.412 6.778 1.524-6.655a2.06 2.06 0 011.535-1.524l5.666-1.288-5.83-1.638a2.06 2.06 0 01-1.37-1.576l-1.299-6.53-1.473 6.489a2.06 2.06 0 01-1.596 1.545zm12.822-15.741l-9.674 2.062 9.692 2.837a3.526 3.526 0 012.432 2.626l2.414 11.595 2.608-11.384a3.524 3.524 0 012.625-2.608l9.692-2.203-9.974-2.801a3.525 3.525 0 01-2.343-2.696L33.72.622 31.2 11.723a3.524 3.524 0 01-2.732 2.643z" fill="#0075FF"/><path d="M56.52 19.796c0-1.54.378-2.963 1.132-4.268a8.498 8.498 0 013.112-3.088 8.243 8.243 0 014.268-1.156c1.571 0 3.025.41 4.361 1.226 1.336.802 2.366 1.87 3.089 3.207l-2.712 1.438a5.383 5.383 0 00-1.98-2.004 5.195 5.195 0 00-2.758-.778 5.438 5.438 0 00-4.715 2.711 5.277 5.277 0 00-.732 2.712c0 .974.244 1.878.731 2.71a5.437 5.437 0 004.716 2.712c1.021 0 1.949-.26 2.782-.778a5.457 5.457 0 001.98-2.075l2.711 1.486a8.408 8.408 0 01-7.473 4.456 8.374 8.374 0 01-4.268-1.132 8.684 8.684 0 01-3.112-3.112 8.376 8.376 0 01-1.132-4.267zm21.15 4.88c0 .251.063.432.189.542.125.11.322.165.59.165.203 0 .447-.023.73-.07V28c-.582.094-1.124.142-1.627.142-.911 0-1.61-.236-2.098-.708-.472-.487-.707-1.344-.707-2.57V11.497h2.923v13.179zm8.695-8.77c1.132 0 2.146.282 3.042.848a5.703 5.703 0 012.121 2.24c.503.943.755 1.988.755 3.136 0 .377-.032.723-.094 1.037h-9.1c.235.833.651 1.485 1.249 1.957.597.456 1.36.683 2.287.683a3.67 3.67 0 001.626-.377c.535-.251.936-.573 1.203-.966l2.24 1.32a5.52 5.52 0 01-2.146 1.886c-.864.424-1.862.636-2.994.636-1.258 0-2.373-.267-3.348-.801a5.687 5.687 0 01-2.263-2.216c-.519-.943-.778-2.004-.778-3.183 0-1.163.26-2.216.778-3.16a5.774 5.774 0 012.216-2.215c.943-.55 2.012-.826 3.206-.826zm3.183 4.974c-.126-.755-.48-1.344-1.06-1.768-.567-.44-1.282-.66-2.146-.66a4.07 4.07 0 00-1.65.33c-.488.22-.88.518-1.18.896-.298.377-.455.778-.471 1.202h6.507zm13.826-4.668h2.924V28h-2.924v-1.155a6.58 6.58 0 01-1.815 1.108 5.59 5.59 0 01-2.051.377c-1.195 0-2.24-.267-3.136-.801a5.426 5.426 0 01-2.074-2.217c-.472-.943-.708-2.004-.708-3.183 0-1.178.236-2.24.708-3.182a5.426 5.426 0 012.074-2.216c.896-.55 1.941-.826 3.136-.826a5.3 5.3 0 012.051.401c.66.252 1.265.613 1.815 1.085v-1.18zm-3.489 9.313c.645 0 1.226-.142 1.745-.425a3.228 3.228 0 001.249-1.226c.315-.518.472-1.108.472-1.768 0-.99-.338-1.8-1.014-2.428-.66-.63-1.477-.944-2.452-.944-.99 0-1.807.323-2.452.967-.629.629-.943 1.438-.943 2.428s.315 1.808.943 2.452c.645.63 1.462.944 2.452.944zm15.409-9.62c.691 0 1.391.15 2.098.448.723.283 1.336.802 1.839 1.556.518.755.778 1.769.778 3.042V28h-2.924v-7.05c0-.88-.251-1.508-.754-1.885-.487-.393-1.061-.59-1.721-.59-.66 0-1.226.236-1.698.707-.455.456-.683 1.195-.683 2.217V28h-2.924V16.212h2.924v.99a5.298 5.298 0 011.414-.943 3.945 3.945 0 011.651-.354zm8.551-1.65c-.55 0-.982-.15-1.296-.448-.315-.299-.472-.707-.472-1.226 0-.534.157-.95.472-1.25.314-.298.746-.447 1.296-.447.551 0 .983.149 1.297.448.314.298.472.715.472 1.25 0 .502-.165.91-.495 1.225-.315.299-.739.448-1.274.448zM122.36 28V16.212h2.924V28h-2.924zm11.836-12.095c.692 0 1.391.15 2.098.448.723.283 1.336.802 1.839 1.556.519.755.778 1.769.778 3.042V28h-2.923v-7.05c0-.88-.252-1.508-.755-1.885-.487-.393-1.061-.59-1.721-.59-.66 0-1.226.236-1.697.707-.456.456-.684 1.195-.684 2.217V28h-2.923V16.212h2.923v.99a5.287 5.287 0 011.415-.943 3.938 3.938 0 011.65-.354zm16.308.307h2.924V27.41c0 1.115-.283 2.098-.849 2.947-.55.848-1.32 1.5-2.31 1.957-.991.471-2.099.707-3.325.707-1.367 0-2.609-.267-3.725-.802-1.116-.518-1.901-1.202-2.357-2.051l2.499-1.438c.236.456.676.833 1.32 1.131.645.315 1.423.472 2.334.472 1.006 0 1.839-.275 2.499-.825.66-.535.99-1.234.99-2.098v-.543a5.81 5.81 0 01-3.842 1.462c-1.195 0-2.24-.267-3.136-.801a5.425 5.425 0 01-2.075-2.217c-.471-.943-.707-2.004-.707-3.183 0-1.178.236-2.24.707-3.182a5.425 5.425 0 012.075-2.216c.896-.55 1.941-.826 3.136-.826.707 0 1.383.134 2.027.401.66.252 1.265.605 1.815 1.061v-1.155zm-3.465 9.313a3.58 3.58 0 001.744-.425 3.23 3.23 0 001.25-1.226c.314-.518.471-1.108.471-1.768 0-.99-.337-1.8-1.013-2.428-.66-.63-1.478-.944-2.452-.944-.99 0-1.808.323-2.452.967-.629.629-.943 1.438-.943 2.428s.314 1.808.943 2.452c.644.63 1.462.944 2.452.944zm24.033-5.8L176.423 28h-3.677l-3.82-5.918L165.107 28h-3.678l5.352-8.275-5.329-8.228h3.678l3.796 5.87 3.796-5.87h3.678l-5.328 8.228z" fill="#211F54"/></svg>